{
    "asset" : {
        "generator" : "Khronos glTF Blender I/O v1.6.16",
        "version" : "2.0"
    },
    "scene" : 0,
    "scenes" : [
        {
            "name" : "Scene",
            "nodes" : [
                17
            ]
        }
    ],
    "nodes" : [
        {
            "mesh" : 0,
            "name" : "Prop_Barrel_Barrel_PropMaterial_0"
        },
        {
            "children" : [
                0
            ],
            "name" : "Prop_Barrel",
            "rotation" : [
                -0.7071068286895752,
                0,
                0,
                0.7071067094802856
            ],
            "scale" : [
                100,
                100,
                100
            ],
            "translation" : [
                1.810374140739441,
                278.863037109375,
                4.767501354217529
            ]
        },
        {
            "mesh" : 1,
            "name" : "Prop_Barrel.001_Barrel_PropMaterial_0"
        },
        {
            "children" : [
                2
            ],
            "name" : "Prop_Barrel.001",
            "rotation" : [
                0,
                -0.5021904110908508,
                0,
                0.8647570610046387
            ],
            "scale" : [
                100,
                100,
                100
            ],
            "translation" : [
                -155.96356201171875,
                115.06472778320312,
                -181.49337768554688
            ]
        },
        {
            "mesh" : 2,
            "name" : "Prop_BarrelBottles_Barrel_PropMaterial_0"
        },
        {
            "mesh" : 3,
            "name" : "Prop_BarrelBottles_BottleMaterial_0"
        },
        {
            "children" : [
                4,
                5
            ],
            "name" : "Prop_BarrelBottles",
            "rotation" : [
                -0.6989904046058655,
                -0.1068294569849968,
                0.106829434633255,
                0.6989902853965759
            ],
            "scale" : [
                100,
                100,
                100
            ],
            "translation" : [
                127.6702880859375,
                186.9909210205078,
                27.447521209716797
            ]
        },
        {
            "name" : "Prop_BarrelShadowPlane",
            "rotation" : [
                -0.7071068286895752,
                0,
                0,
                0.7071067094802856
            ],
            "scale" : [
                100,
                100,
                100
            ]
        },
        {
            "mesh" : 4,
            "name" : "Prop_Bottle_BottleMaterial_0"
        },
        {
            "children" : [
                8
            ],
            "name" : "Prop_Bottle",
            "rotation" : [
                -0.6894602179527283,
                0.1569863110780716,
                0.1569863259792328,
                0.6894602179527283
            ],
            "scale" : [
                90.16169738769531,
                90.16169738769531,
                90.16169738769531
            ],
            "translation" : [
                -42.487274169921875,
                262.4700012207031,
                27.447532653808594
            ]
        },
        {
            "mesh" : 5,
            "name" : "Prop_Bottle.001_BottleMaterial_0"
        },
        {
            "children" : [
                10
            ],
            "name" : "Prop_Bottle.001",
            "rotation" : [
                0.10785523056983948,
                0.051922209560871124,
                0.8319811224937439,
                0.541736900806427
            ],
            "scale" : [
                90.16169738769531,
                90.16168975830078,
                90.16170501708984
            ],
            "translation" : [
                85.3860855102539,
                23.595722198486328,
                -175.40704345703125
            ]
        },
        {
            "mesh" : 6,
            "name" : "Prop_Bottle.002_BottleMaterial_0"
        },
        {
            "children" : [
                12
            ],
            "name" : "Prop_Bottle.002",
            "rotation" : [
                -0.6894602179527283,
                0.1569863110780716,
                0.1569863259792328,
                0.6894602179527283
            ],
            "scale" : [
                90.16169738769531,
                90.16169738769531,
                90.16169738769531
            ],
            "translation" : [
                -138.0410919189453,
                1.6609162092208862,
                -83.12188720703125
            ]
        },
        {
            "children" : [
                1,
                3,
                6,
                7,
                9,
                11,
                13
            ],
            "name" : "RootNode"
        },
        {
            "children" : [
                14
            ],
            "name" : "f4d1ce9219d9421c80b92c5e26414e58.fbx",
            "rotation" : [
                0.7071068286895752,
                0,
                0,
                0.7071068286895752
            ]
        },
        {
            "children" : [
                15
            ],
            "name" : "RootNode (model correction matrix)"
        },
        {
            "children" : [
                16
            ],
            "name" : "RootNode (gltf orientation matrix)",
            "rotation" : [
                -0.7071068286895752,
                0,
                0,
                0.7071068286895752
            ],
            "scale" : [
                0.003000000026077032,
                0.003000000026077032,
                0.003000000026077032
            ]
        }
    ],
    "materials" : [
        {
            "doubleSided" : true,
            "name" : "Barrel_PropMaterial",
            "normalTexture" : {
                "index" : 0
            },
            "occlusionTexture" : {
                "index" : 1
            },
            "pbrMetallicRoughness" : {
                "baseColorTexture" : {
                    "index" : 2
                },
                "metallicRoughnessTexture" : {
                    "index" : 1
                }
            }
        },
        {
            "doubleSided" : true,
            "name" : "BottleMaterial",
            "normalTexture" : {
                "index" : 3
            },
            "occlusionTexture" : {
                "index" : 4
            },
            "pbrMetallicRoughness" : {
                "baseColorTexture" : {
                    "index" : 5
                },
                "metallicFactor" : 0.10537347197532654,
                "metallicRoughnessTexture" : {
                    "index" : 4
                }
            }
        }
    ],
    "meshes" : [
        {
            "name" : "Prop_Barrel_Barrel_PropMaterial_0",
            "primitives" : [
                {
                    "attributes" : {
                        "POSITION" : 0,
                        "NORMAL" : 1,
                        "TEXCOORD_0" : 2
                    },
                    "indices" : 3,
                    "material" : 0
                }
            ]
        },
        {
            "name" : "Prop_Barrel.001_Barrel_PropMaterial_0",
            "primitives" : [
                {
                    "attributes" : {
                        "POSITION" : 4,
                        "NORMAL" : 5,
                        "TEXCOORD_0" : 6
                    },
                    "indices" : 3,
                    "material" : 0
                }
            ]
        },
        {
            "name" : "Prop_BarrelBottles_Barrel_PropMaterial_0",
            "primitives" : [
                {
                    "attributes" : {
                        "POSITION" : 7,
                        "NORMAL" : 8,
                        "TEXCOORD_0" : 9
                    },
                    "indices" : 10,
                    "material" : 0
                }
            ]
        },
        {
            "name" : "Prop_BarrelBottles_BottleMaterial_0",
            "primitives" : [
                {
                    "attributes" : {
                        "POSITION" : 11,
                        "NORMAL" : 12,
                        "TEXCOORD_0" : 13
                    },
                    "indices" : 14,
                    "material" : 1
                }
            ]
        },
        {
            "name" : "Prop_Bottle_BottleMaterial_0",
            "primitives" : [
                {
                    "attributes" : {
                        "POSITION" : 15,
                        "NORMAL" : 16,
                        "TEXCOORD_0" : 17
                    },
                    "indices" : 18,
                    "material" : 1
                }
            ]
        },
        {
            "name" : "Prop_Bottle.001_BottleMaterial_0",
            "primitives" : [
                {
                    "attributes" : {
                        "POSITION" : 19,
                        "NORMAL" : 20,
                        "TEXCOORD_0" : 21
                    },
                    "indices" : 18,
                    "material" : 1
                }
            ]
        },
        {
            "name" : "Prop_Bottle.002_BottleMaterial_0",
            "primitives" : [
                {
                    "attributes" : {
                        "POSITION" : 22,
                        "NORMAL" : 23,
                        "TEXCOORD_0" : 24
                    },
                    "indices" : 18,
                    "material" : 1
                }
            ]
        }
    ],
    "textures" : [
        {
            "sampler" : 0,
            "source" : 0
        },
        {
            "sampler" : 0,
            "source" : 1
        },
        {
            "sampler" : 0,
            "source" : 2
        },
        {
            "sampler" : 0,
            "source" : 3
        },
        {
            "sampler" : 0,
            "source" : 4
        },
        {
            "sampler" : 0,
            "source" : 5
        }
    ],
    "images" : [
        {
            "mimeType" : "image/png",
            "name" : "Barrel_PropMaterial_normal",
            "uri" : "Barrel_PropMaterial_normal.png"
        },
        {
            "mimeType" : "image/png",
            "name" : "Barrel_PropMaterial_metallicRoughness",
            "uri" : "Barrel_PropMaterial_metallicRoughness.png"
        },
        {
            "mimeType" : "image/png",
            "name" : "Barrel_PropMaterial_baseColor",
            "uri" : "Barrel_PropMaterial_baseColor.png"
        },
        {
            "mimeType" : "image/png",
            "name" : "BottleMaterial_normal",
            "uri" : "BottleMaterial_normal.png"
        },
        {
            "mimeType" : "image/png",
            "name" : "BottleMaterial_metallicRoughness",
            "uri" : "BottleMaterial_metallicRoughness.png"
        },
        {
            "mimeType" : "image/png",
            "name" : "BottleMaterial_baseColor",
            "uri" : "BottleMaterial_baseColor.png"
        }
    ],
    "accessors" : [
        {
            "bufferView" : 0,
            "componentType" : 5126,
            "count" : 3922,
            "max" : [
                1.2341939210891724,
                1.2999721765518188,
                0.0535733699798584
            ],
            "min" : [
                -1.3001631498336792,
                -1.20462167263031,
                -2.830833911895752
            ],
            "type" : "VEC3"
        },
        {
            "bufferView" : 1,
            "componentType" : 5126,
            "count" : 3922,
            "type" : "VEC3"
        },
        {
            "bufferView" : 2,
            "componentType" : 5126,
            "count" : 3922,
            "type" : "VEC2"
        },
        {
            "bufferView" : 3,
            "componentType" : 5123,
            "count" : 11676,
            "type" : "SCALAR"
        },
        {
            "bufferView" : 4,
            "componentType" : 5126,
            "count" : 3922,
            "max" : [
                1.2341939210891724,
                1.2999721765518188,
                0.0535733699798584
            ],
            "min" : [
                -1.3001631498336792,
                -1.20462167263031,
                -2.830833911895752
            ],
            "type" : "VEC3"
        },
        {
            "bufferView" : 5,
            "componentType" : 5126,
            "count" : 3922,
            "type" : "VEC3"
        },
        {
            "bufferView" : 6,
            "componentType" : 5126,
            "count" : 3922,
            "type" : "VEC2"
        },
        {
            "bufferView" : 7,
            "componentType" : 5126,
            "count" : 306,
            "max" : [
                0.20269709825515747,
                0.9735302329063416,
                0.13693857192993164
            ],
            "min" : [
                -0.21591883897781372,
                -0.12632986903190613,
                -0.024036889895796776
            ],
            "type" : "VEC3"
        },
        {
            "bufferView" : 8,
            "componentType" : 5126,
            "count" : 306,
            "type" : "VEC3"
        },
        {
            "bufferView" : 9,
            "componentType" : 5126,
            "count" : 306,
            "type" : "VEC2"
        },
        {
            "bufferView" : 10,
            "componentType" : 5123,
            "count" : 1440,
            "type" : "SCALAR"
        },
        {
            "bufferView" : 11,
            "componentType" : 5126,
            "count" : 5685,
            "max" : [
                0.3161498010158539,
                1.1989340782165527,
                0.4435693323612213
            ],
            "min" : [
                -0.32434388995170593,
                -0.2292272001504898,
                -0.7043248414993286
            ],
            "type" : "VEC3"
        },
        {
            "bufferView" : 12,
            "componentType" : 5126,
            "count" : 5685,
            "type" : "VEC3"
        },
        {
            "bufferView" : 13,
            "componentType" : 5126,
            "count" : 5685,
            "type" : "VEC2"
        },
        {
            "bufferView" : 14,
            "componentType" : 5123,
            "count" : 18108,
            "type" : "SCALAR"
        },
        {
            "bufferView" : 15,
            "componentType" : 5126,
            "count" : 1850,
            "max" : [
                0.2690179944038391,
                0.2709583044052124,
                1.1856355667114258
            ],
            "min" : [
                -0.2688913941383362,
                -0.26889169216156006,
                -0.00632283091545105
            ],
            "type" : "VEC3"
        },
        {
            "bufferView" : 16,
            "componentType" : 5126,
            "count" : 1850,
            "type" : "VEC3"
        },
        {
            "bufferView" : 17,
            "componentType" : 5126,
            "count" : 1850,
            "type" : "VEC2"
        },
        {
            "bufferView" : 18,
            "componentType" : 5123,
            "count" : 6036,
            "type" : "SCALAR"
        },
        {
            "bufferView" : 19,
            "componentType" : 5126,
            "count" : 1850,
            "max" : [
                0.2690179944038391,
                0.2709583044052124,
                1.1856355667114258
            ],
            "min" : [
                -0.2688913941383362,
                -0.26889169216156006,
                -0.00632283091545105
            ],
            "type" : "VEC3"
        },
        {
            "bufferView" : 20,
            "componentType" : 5126,
            "count" : 1850,
            "type" : "VEC3"
        },
        {
            "bufferView" : 21,
            "componentType" : 5126,
            "count" : 1850,
            "type" : "VEC2"
        },
        {
            "bufferView" : 22,
            "componentType" : 5126,
            "count" : 1850,
            "max" : [
                0.2690179944038391,
                0.2709583044052124,
                1.1856355667114258
            ],
            "min" : [
                -0.2688913941383362,
                -0.26889169216156006,
                -0.00632283091545105
            ],
            "type" : "VEC3"
        },
        {
            "bufferView" : 23,
            "componentType" : 5126,
            "count" : 1850,
            "type" : "VEC3"
        },
        {
            "bufferView" : 24,
            "componentType" : 5126,
            "count" : 1850,
            "type" : "VEC2"
        }
    ],
    "bufferViews" : [
        {
            "buffer" : 0,
            "byteLength" : 47064,
            "byteOffset" : 0
        },
        {
            "buffer" : 0,
            "byteLength" : 47064,
            "byteOffset" : 47064
        },
        {
            "buffer" : 0,
            "byteLength" : 31376,
            "byteOffset" : 94128
        },
        {
            "buffer" : 0,
            "byteLength" : 23352,
            "byteOffset" : 125504
        },
        {
            "buffer" : 0,
            "byteLength" : 47064,
            "byteOffset" : 148856
        },
        {
            "buffer" : 0,
            "byteLength" : 47064,
            "byteOffset" : 195920
        },
        {
            "buffer" : 0,
            "byteLength" : 31376,
            "byteOffset" : 242984
        },
        {
            "buffer" : 0,
            "byteLength" : 3672,
            "byteOffset" : 274360
        },
        {
            "buffer" : 0,
            "byteLength" : 3672,
            "byteOffset" : 278032
        },
        {
            "buffer" : 0,
            "byteLength" : 2448,
            "byteOffset" : 281704
        },
        {
            "buffer" : 0,
            "byteLength" : 2880,
            "byteOffset" : 284152
        },
        {
            "buffer" : 0,
            "byteLength" : 68220,
            "byteOffset" : 287032
        },
        {
            "buffer" : 0,
            "byteLength" : 68220,
            "byteOffset" : 355252
        },
        {
            "buffer" : 0,
            "byteLength" : 45480,
            "byteOffset" : 423472
        },
        {
            "buffer" : 0,
            "byteLength" : 36216,
            "byteOffset" : 468952
        },
        {
            "buffer" : 0,
            "byteLength" : 22200,
            "byteOffset" : 505168
        },
        {
            "buffer" : 0,
            "byteLength" : 22200,
            "byteOffset" : 527368
        },
        {
            "buffer" : 0,
            "byteLength" : 14800,
            "byteOffset" : 549568
        },
        {
            "buffer" : 0,
            "byteLength" : 12072,
            "byteOffset" : 564368
        },
        {
            "buffer" : 0,
            "byteLength" : 22200,
            "byteOffset" : 576440
        },
        {
            "buffer" : 0,
            "byteLength" : 22200,
            "byteOffset" : 598640
        },
        {
            "buffer" : 0,
            "byteLength" : 14800,
            "byteOffset" : 620840
        },
        {
            "buffer" : 0,
            "byteLength" : 22200,
            "byteOffset" : 635640
        },
        {
            "buffer" : 0,
            "byteLength" : 22200,
            "byteOffset" : 657840
        },
        {
            "buffer" : 0,
            "byteLength" : 14800,
            "byteOffset" : 680040
        }
    ],
    "samplers" : [
        {
            "magFilter" : 9729,
            "minFilter" : 9987
        }
    ],
    "buffers" : [
        {
            "byteLength" : 694840,
            "uri" : "scene.bin"
        }
    ]
}
